<mxfile host="app.diagrams.net" modified="2023-06-10T09:44:43.354Z" agent="Mozilla/5.0 (Windows NT 10.0; Win64; x64) AppleWebKit/537.36 (KHTML, like Gecko) Chrome/114.0.0.0 Safari/537.36 Edg/114.0.1823.41" etag="ZXyXbZnAi9jExhOgC6zc" version="21.3.7" type="github">
  <diagram id="C5RBs43oDa-KdzZeNtuy" name="Page-1">
    <mxGraphModel dx="911" dy="474" grid="0" gridSize="10" guides="1" tooltips="1" connect="1" arrows="1" fold="1" page="0" pageScale="1" pageWidth="827" pageHeight="1169" math="0" shadow="0">
      <root>
        <mxCell id="WIyWlLk6GJQsqaUBKTNV-0" />
        <mxCell id="WIyWlLk6GJQsqaUBKTNV-1" parent="WIyWlLk6GJQsqaUBKTNV-0" />
        <mxCell id="EHCajwmgejeRqQbwnNQA-26" value="" style="rounded=1;whiteSpace=wrap;html=1;fontSize=12;glass=0;strokeWidth=1;shadow=0;arcSize=18;fillColor=#dae8fc;strokeColor=#6c8ebf;fontFamily=simsun;" parent="WIyWlLk6GJQsqaUBKTNV-1" vertex="1">
          <mxGeometry x="521.3" y="1080" width="238.7" height="251.25" as="geometry" />
        </mxCell>
        <mxCell id="G4_ZPfTSfTKjTcAOsqXa-23" value="&#xa;&lt;span style=&quot;color: rgb(0, 0, 0); font-family: Helvetica; font-size: 18px; font-style: normal; font-variant-ligatures: normal; font-variant-caps: normal; font-weight: 400; letter-spacing: normal; orphans: 2; text-align: center; text-indent: 0px; text-transform: none; widows: 2; word-spacing: 0px; -webkit-text-stroke-width: 0px; background-color: rgb(251, 251, 251); text-decoration-thickness: initial; text-decoration-style: initial; text-decoration-color: initial; float: none; display: inline !important;&quot;&gt;DNN模型推理&lt;/span&gt;&#xa;&#xa;" style="shape=ext;double=1;rounded=1;whiteSpace=wrap;html=1;" parent="WIyWlLk6GJQsqaUBKTNV-1" vertex="1">
          <mxGeometry x="10" y="420" width="800" height="180" as="geometry" />
        </mxCell>
        <mxCell id="G4_ZPfTSfTKjTcAOsqXa-4" value="" style="shape=ext;double=1;rounded=1;whiteSpace=wrap;html=1;" parent="WIyWlLk6GJQsqaUBKTNV-1" vertex="1">
          <mxGeometry x="10" y="140" width="800" height="170" as="geometry" />
        </mxCell>
        <mxCell id="G4_ZPfTSfTKjTcAOsqXa-2" value="" style="edgeStyle=orthogonalEdgeStyle;rounded=0;orthogonalLoop=1;jettySize=auto;html=1;" parent="WIyWlLk6GJQsqaUBKTNV-1" source="WIyWlLk6GJQsqaUBKTNV-11" target="G4_ZPfTSfTKjTcAOsqXa-1" edge="1">
          <mxGeometry relative="1" as="geometry" />
        </mxCell>
        <mxCell id="WIyWlLk6GJQsqaUBKTNV-11" value="&lt;font style=&quot;font-size: 18px;&quot;&gt;实时视频采集&lt;/font&gt;" style="rounded=1;whiteSpace=wrap;html=1;fontSize=12;glass=0;strokeWidth=1;shadow=0;" parent="WIyWlLk6GJQsqaUBKTNV-1" vertex="1">
          <mxGeometry x="110" y="190" width="160" height="80" as="geometry" />
        </mxCell>
        <mxCell id="G4_ZPfTSfTKjTcAOsqXa-0" value="" style="shape=image;verticalLabelPosition=bottom;labelBackgroundColor=default;verticalAlign=top;aspect=fixed;imageAspect=0;image=data:image/png,iVBORw0KGgoAAAANSUhEUgAAAH8AAABiCAYAAAB59QxWAAAAAXNSR0IArs4c6QAAAARnQU1BAACxjwv8YQUAAAAJcEhZcwAAFxEAABcRAcom8z8AACNKSURBVHhe7V0HnBTF8uYid0dQsmSQI0sUFAPJB8JDomSPoOITBAEDQQmCiMIDRIISJCdBkEcwgXLk5F9AyUjOSXKUZP3rq57andvb4fYCdyr78Stmdqanp7u+6lDdPX2pnPDnn3++wPIdy0yWniytWZqw1GYpagXz458IJngcJRD87C8si1jmsUxneZ2lJUvDW7du1eJjpPUaP/6KYILmWlwmO/jdy1hcxsOXXuUjjKcBSw2WvFYy/bgXYIVvECYSiTt37ogwYTEE127fvi2i95MCHM91lmgWNFlzWcaxtGFBMwbjqcTiN567gRW0z9JngsFxeCVaRe/jOo5/BXA6zrOI8fDP2XwcxPISSzOWeiwVWHJbavpngjN43agjYeDnXYRzOy+i15V8NQZc+6eA83KAZQnL1/wTxtOfxWU8fO1RS8V/XUhOEgHOqItgEI/zixcv0vnz560QbgPB0Q8D1sVOlh9YFrCkjKdlpSXB4EQK4SAe55cvX6bevXtTixYtaOasWXT69OlYpOMX1wN8/Y654Ee8wTqFp2U3nk4sMJ6GLL55WlZcCQa/xFWlX79+nWbOnEnp06cnRJ03f156+ZU2NGHiRNr06y904cJFIR4A+XeY/Dv8HJ5V0bj06EfCwfr7w7DsACtcgqGkAdu2baPHH39ciA8MDJIjJF36B6hipUr04YCB9OvmLdIk3Lx5U567jVrDqjm0b4CjnvuRcLB+z4BjR1jh4gWQpiVTiUf13q1bNyE7KCiIUqcOp9DUERQcktplBMHBIRQZWYiiWrSm2XO+ojNnzsqzgBiCRboagsbtR8LA+tsFjh1hhfMJSradKJzDEKZMmUIZM2YUklOHhVFIapbQcD6PYCMIFyMIsNUGoaGhVOGJp+iD/h/RypUr6dq1a9Zb3O/xI3FgHX4Ljh1hhfMJIFlFSyewYeNGqvrMM0JqCJOcmomHAYB0u6ghhISGUWBQiMsQsmTJQs2aNZH+wuHDh1zxKtTA1Cj03I84MRkcewUrsJYVyCeo8rXUA2fPnaP2HToymcEUEBBkEQ3yDdlKuJKvv/UcxhIQEMhNRSBlzpyZypd/jN7t0YPWr/+JLl+5Iu8AlHQI3u03AJ/Q16I6Nlh5Da1APkEJgPJV8dOmzaC8efOZqpzb+FCL1LhEDQKCJsE0C8EcTwClTZuOSpcpS23bvUZTpk6j3/bskQ6iQtPhJ//uYP10NEx7Ad/sYoXzCVryVOno3T/1dEUhPjgk1FWilVRPwr0JwqEZ0GNwcKhlBKaDmDVrNqrfoCFNmjKVtmzdSmfPnnXVOkgHRNPkee557X6DkOwEVkgfK5xPUEXq+RtvvEFp0qSR9lsJV/FGtJNoeBzthoCmhJMpki59eqpQoQJ17dKF1qxeTRfOX3CNKCItmjZ7k2C/hvP7DUKyE1ghmEaNF1SJM2bM4FKZlVIFBMQiMb4S13N2dxGSL38+GUEcP3ECHT1+DGOFkiYAZN9ism/fcY8VqBHcbwYAjh3ByphnhYsTdgVC6tSpw521EKnuUUq1xIIsewnW33ER7CQSF3cgzfPhFMTv5KQbCUhFkYUL0nt9+9DKNavp8jV3BxFAOtUA/OR7gJWxwwoXJ6A4VSIUOnv2bBnNgwGgk2avrpVoz9/exOkerkPCwtNIHMEhiAfCrmQ4/w4NoQD2EDgb7C0EUIbMGanWc7VozOdjae/+/TJy6IJlsPcbDMsOYIUcsML5BCgQAvLXrl1L48aNo379PqBcufMKCZ5tv51ET3LjI644RNiN1KO4k8bA0EnEyGKGDBmoUpUq0h/5ftEiunTpUgzicWaEjfnPf3ZtYFh2gBUmTkBB9qoT5E+ePIVy5sxJ4ydMorn/m0916taXGgDRoo0GWSi1hniId2LjkrsaDruWEISBAYgRBGAUMZDCwlJTkSJFqH2H9jRr9pe0ddtWunLliotszgndxsQSzMDKn97DUc//zjAsO8AKEyfsylE5duwoFS1aTMiu/mxN+va7RfTZqLF8rbhcg4AU+P4Y5pV2G8O9IMxGXCxCEyDmPUZgeKiBAgJNk4B+Qa7cuaha9Wo0ZOhQ2rFzJ51hd1HHDW7/yR3DW+5hau0j/BPA+XeGFcYnqHLUCFCdtm/f3kX0Q9lzUtdu3WnBwq+pY6c3KDw8Qq6jOgYpQUwKSibIwhHXPElMrCj5waH8rjD0C2AIbncxmPsn5R8rT524SZi/cAGdPX9OyNb84VwFv//u4Dw7wwrjE+zkA5i7Hz9+vFFsINr7IK7mw6hS5co08rNPpeNVuUplt+JDQ5kgJp2bAHTaQvlcmoMkNAKQr4ZlP8c9nGuzBAlhL6Ve/edp6tTptH37dsmTQvP6dwbnIenm8u3kq2I2/fIL5X/4YVFmKLexIalD5TxfvnzUsXMn+nzCeGrXvh3lzptbrgcGB1FouOmtQ0I5fGr03j1ITCpRI9Bz9EFwDkPQGiGQm4eHOQ+tW7empUuX0tWrVyVvCs23/fh3AKcz6ebykWkVrSrPnDlD7/R4V6pTRBfIrlcIG0FAYAClSZuWnvnXM/TJ8GE0aMhgqvBEBSEa4eCmwVjEbUtEZ9AXUQOA2GsFlaBgY7DwFLJle4iqV69OAwcOpM1btsgIogL5thv+Xx2c3s3g2BFWOJ9gJx8K0HYRJWXqtGlUskxpUSJ87qAQLlV8DA4OpqLFitLrnTrSiE9HUps2L1PmLJljGICp+r0TF1+xE+x53X4N59I3sLwSXIMRBAaGyAqkBx54gMpx36B7j3do4dcL6fCRI5YW3FBdeJ7/VcDpWSgkO8EK5xM0gxAl31SD5v6xE8eo/0cfUp68xucH+agJcJ42XVpq2LiR9AW6v/sOlSxZkhUfbJoB1+idm6x7LXifGom9NsB5MEsquIvsJUSkiaCChQtRVMsWNGPWF7Rr1y66eOGCq/Qr4aoTPep5SoLfP0pI9ga+Ga+5fG9ABiWTVkZv3rpJP//8M73GvnXmLFlMTcBNABSJ88iCkdS33/v02ZhR9GzNGhTOykXbC6XbS6yS4XnuKXe7Fx/ReFAT6LQy0muXDBkzULVq1alv374ywHWBjUDXIUJQGOzrEEUvKQh+f29Ot3fwzWZWuEQDGdXSgOMVbgr+N38e1a5bh9Jy28+vcwlm5xo3aULjuDP4dteulCdPHrmOateTyKQi967CTQ7GH2B8qQICudoPpgwZMlGByAJU9JFiUvIxmIXZSzVidBDh5s6dO5dOnDgh+QbUCNQAUtII+L3/4bR6B9+M11y+E5A5Fc0w8Mcff9CBAwekw1e23KPWHIDbCIo9UpwGDhpEYz8fzx3D6q77diPA4BAGiXB+74wA74AbyDVTZCH6aMBA+nnDRtp3YD/t2btHlpx/v3gRjRn3OfXs3YuaNW9GxYoVcy1Px/mwYcOkSUCeFaoPHFMCnDZncKI+tMIlCvZM4ijVH4tm+tLlS7R23Vp6q8tbMhUL10pLEEbhmjePohlfzKRevd+j3HnMiqCgYDNH4J0styRFzYBxB7wTgz+rVq+SNG/fsZNGj/mc3u/Xn/47eAiNGjuGZsycJXMFq1avphUrV9K3331LQ4YMoRo1alCOHDkoskAk1atXj0aPHk2HDx92JB3Xne4lJcCxIzgB8Z7L94RmxFPUCCD4DcAtxALNxo0by+SLvSbIkTMH1wL/pTlcjTZ4vgGFhZmSCK8hhN1BuI8gyRt5iRWp6rnjOXHyJEnn7K9mU5kyZaV5ChNPJIzCIyK4zc9EBQsVoqrsvqJPM37ieFqxaiVt3rqZtu3YTtFLo+lzrh169OhBXbt1pUGDB9G3i76nI4eP0I2bN2LoRguLyr0AOHYEv3SRFS7BcEo8rtkNQDMLnDx5kt555x1Kly6djApi0EdrgqcqPk1Tp0+T/kCJUiVNLcHX4RmEMBEhaJ+TyC1UQfyVqlSmY8eO0Z59e6lUmVJyDRNE6PyZiaLYHUAJw95MEXZlW7ZuRe9/0I8mTJpIy5Yvp4OHD4lhTJ46mb7+5hs6eOQwXb9xw+jitttTsutFobrzptf4gNPnDI78NyvcPYE9ExDNMAADKFSwkCgwJNT4+oHBZsQtR85c1LFTRzaACdTn/b7sIRSUsQPcCwp2++VJUuXz84i37Wvt6Nr16zL79+CDD4qvb7wPtzsIT8BcM4NTOpppl9Th4ZS/QAFq1KQxjRg5gpZwbbDx103yQQvyL2BOVSeeAv14FpaEgtPjDI7c3U1NBiBDcIU0UzVr1hRSzSINQ6K4WkEhUu2XKVuOho8YKR3CFi1bUe7cxiuAePMMVHDd854S6HldevgcXxeupqH00WPGyLvN6iTj+ml8CGsE5+74kBaEw0wizlFLYHArW7ZsVOHJJ2SMAIaw6ZdNsvhUC4BCSQdwTAriAXDsCCtMskAzqBnDEVU/koFBFSVIlQ3FBgSGiItVr35D+mTYCBr56ShZxZuTawbM12N8wF0a3QTZj3ai9R2e4ZEGjD0gXR8NHCDDvDrsrOHMs8ZYMDUN91DTHR6eRp5BPCZdoWIIGOSSa9ykZcmalao+U5X7At3oyy+/pK1bt8r3imgClGhP/cAY9V5CwO92hhXmnkMzY88caoBJkyaJcjDV61awmxQQi84YSlPx4o9Qh9c7igEMGvwx1a3XgHLlym3I4zYZYXCui0dCQjg+kCWEIU4b+XIPhhYmz6GzN5Y7akgbhqGRJvd8gx4RL57HhBTHwcaBD00KFSpMo0aPoZ69elONmv+WD1Lx/N0EzUqZMmXovffeo/Xr19Pvp3+P8U0CSId+IKqvhIDf5QwrzD2HpyVDcL6I3SYoF+TZyXeRhFLGxEkp4uQGsvv3+OMVqN8H/dk1nEVDPv6EjeB5WULm8hwCzNoBmS5mkkzptWqBcI4Xv8UYTC2DKjrLQ9lo7fp1dPnKZapctYrEY0+Lnfxgq62HF4LS/vbbb2ku6dq1q7R8xXIZ13i1XVuqwiU9K1f9ki4HeTDDg/KZW9euXdiN/J69ArcRAKqvhIDjd4YVJlmgBmDPzLbt26lEiZKihNjKNoJragT6kSeUXrpsWerdpw99t2gxzZu/gNq91p6KFCnGhLrdRwjWEMjsoQjHw8cQviYTT3w/Ik0a6ezBGJcxcRhuhkF4pkPSwoaDEo8JKVTluXLlog0bzF5WyBuAeDDQg51J4D1ggGjqjGnUslVLKl2mtCx1x5oHexpV8O7n6tQmzI/8sORHOn/hgsSpccfHCDjsVY7TGVa4ZIGddD0eO36cmjRtKhlXku1HUTgfRVBi2SUMCeMOFeYK+Bm4gXny5aUXX36J5sz9in7Z/KsMKcNDQAnGegGE8yYwIAwrt+USivGH07+fFt8d97D6JybxSAunSYQ7d0w+OnT169VzjehpFQ0gf9dv/EEnT52ivfv30a7dv9HW7dvE9Zs2Y7pMgWOsIA93YOHuSn9BB724n4AOZ1aujZ6pWpWWLFkicSJujd8XcBpOcXzOsMIlC7yRj55vl27dDRnc9irZdtI9CUiNKWAsAuFzeymHwqDQAf8dSIt+WEzrflpPK1evkjGDHj170IsvvUh16tWlZ599lmrVrkXt2r9GX3/7DZN3Q8bm+33YX6pzdNKkQ+d6r1uk5DP58O3xQemnn34q+UB+QAxK/b4D+6gv+/sVK1eSIW0IxhBefa0tjRozmrbv3AFPjw4dPizp/IDfi9JeqGgRSps+nSs/kNy5c8un6wDijif5azkOZ1jhkgWqID0Hbty4SUM/GSZtPkQUHINwm6DDxlW/LNe22mxTElEVs2dgTR1Dwrmtx1w8PuSY/dUcWrR4kRjCmnVrac3aNbRl6xY6dfoUHeVqecHXC9mDqM99BuOzY8zB6xSzdBi5n4Aqn8M99fTT9NtvZpgE+UHPHVvPYBII93Vcwi4RadPI4hbUUva9CFBLHDh0kJavXCEDRUXYEPB8y5YtXTrDUfXmCzhs0s3lJxZIuCbeHM35xImTKW06M0FietOeJd67IIzpC+jgi+m962+MHKaJiKDs2bNLW1u7Xh3ZG6jzm2/Sm9xJ+0/bV6VpwDoDvBv9CY3P2/slXWxsmIvAMz179ZL0A6g5MKSrq5REuBpP90B6yl/gYdfiFRU0N+PZUFCaPbF9x3aqxLVGpoyZZH0kAH0loOQP53d5B9+sbYVLNiATKpqRH5dEU9FiZvm3Ubp38kX5tuv62/N6CH5bBmAGXLRG8D48i5E8XU4ucVnk2+M0gmuG3OLFi9M333wj6cfOY4MHD3bN8EEKFIyUpgaTWQcPHqQl0dHSqcz20EOuMMU4jh+t9ly+HZACQdJMoUNYvlw52rhxo1yDvhJA/l3n8qOscMkGO/Fq9ceOHadatWqLQkKlo+W95NnFGzn6G3sDQHShpt4ztQHW8gfLIAxKuN7X0o7nYDxOpR8zjUhnG65BdA5//vz57Oubqh5Sj5uQLdu20k3uAB4/cZwOMPnYYALfCQxjF9C1yokFBmHffOI4x/lSm5flHj40wQcmgOoMgnMf8SLH4x0cSXcrULJDMwKgt4y2DT139HqNARgiVOkg4q7VsXUfBOMcRy3pmAtwG4IJqwNBEKe49NweBvFlz5mDvpwzW9KOpeudOnUyvXW+V4V751j0efjoEerUuTMVKlyYHo4swB3M5yh62VK6yu08RvjCIsx8AiaxNmx0b3u8aPFiKlykMEsRcfUAJd5+9AUcvzP4/kATLPmhGVG8ye1wBLfPSFZQkBmksRMCMpxESjRm3rD0KkBnAENZ8UXp4QIFXR05hNM4IXjW/h676Dtd9/mIc8RTu04dcd2AnTt30pNPPinXscpnzldf0eWrV+jl/7RhIzbvVan2bHXat38/rVqzmqt808yhAwjXD/iDO32d33xDrjdt1kyaC0Cr+/gQD3A8zuCIZlrhUgyaGSx+iIyMlJ28oERtd6F4O9EQb73oMA6bIWMWbotLUIMGDWj69C/oyNHjtHvPPnq9Y2d2y7JKOEzNKqkmvphGpuf6235N9xT8aMAAGcAB0O7nz59frpd99FHau3cvLfrxB9d3DHBFMaCEcwwqzZnzlfTqn3jKGAwEH7YAu/fspnLly8m1j4cNdX07oMTH1wA4HmdwJImey08sNCOnTp2iNWvW0KpVq6hb167cm37AVVKVLJRsnFerXoOaNG1ONf/9HD3x5NPsclWizp3f4irzRzpy5Khr1lDl/PkL9P33iyiKm5YwdgE562wEgRaxKm7SVezkox+A54oWLSojeiABmDZtmszc4R78euQDJTlL1izSFJj+i9sDmD1nDpf+fWIoeg3b1wFYSJIpc2bKmy8vbdhkOnp2wiFJSf49nctPKKBQmSXjnroSAEGvPU3a9DT3f/O4SjzEJWUvbd22XUYJlQwAykHvGXLzNhsC/7t167asux8y9GOqWKmijM6xCqySaaveLdFrKsZrSCXtO1bsKgGLuY3GFnK4F1mooLT1v275lXLmwawjx8/v0TmH0qVL0759+2j58uUyU4lrqbl/s2LFCrpx6ybV+HdNufZO9+507tw5iV+rfLxPxVdwXM7giNxbYqcw7BnDqBmUreRrKUQHLlOmrPTTz+6SZweuiaJYYYjr1p3b0uO+zeca+uq1q7SRS1XX7t2kU2WWlAdKLWOagZiGoL8xWQTjW7hwoatmAfbs2cO9d/cag8nTTCn+mI0sTUQa13Ws9MUkFtChQwfXeMBTTz1Fv585Q0uXL+NSn4nTEyjhdKgY5Ou74guO3xlWmBQHMqdk4nzIkKGccLPLhxKPc4wA4itgrKoF8MTd1IK4/oQx4Mj/+MwVHhMmC5jIho0aShVt5uCxvYwxAn0n+gTwDKCuUqXLSrWO+NRNxShdvfr1xFNBGPj3v27ZLGFWrVpNn332mWxesXv3bgk/ZuxYGRZGWMiECRPkeo9ePaWZKF2mjKx2ljSziDHzMSHg+J1hhUlxaEYBzGn37/+hKMYb+XnyPkybt26TsLHLvjMQ/Z07Rpl2Qztx8gQNHz6cHq9QQYaEMWGEjhnmDjBkjAke7P+DTuZI2zi+lkjIbHb7sNBTJ2ZKli5Fk6dOoVO/n5bwZ86dpXXr1lGXrl1c/QMI3LxTp0/T6TO/U+lHy8i1Ltzf0bgTQzzA8TnDCpPiUCUC6OH27NlLFOGN/MJFitIuHU+X/30EB/4T5GMkDQYABVtGgN+/seuGZVx58+cTojFPAF88tbWwFEO0+w+a3WuUGCXnxo0b0ozAtQsINh4Bxv+Lsjv3r+rVpCMIX19XIyP+R0qUkHF8PI8Fn7ieJVtW17LxxBLPz97mOJ1hhUtxqDIB9MzfeOOtWOSjOgb55cqX52pxv4SNL/AeFSXvFncIYRAAStxPP/8fNW7axEUUVvig01anfl26ePmShPOG89xB69DpdfHb8ZyTIC7MKi6JNsO6GMF7npse3EOHz/7pV2LAz1/iOJ1hhUtx2DOLFa5t27YTZdjJxygdyMcI2pEjhyVsfKHvgWjJwni67PPPnUNV97Xr19ijmCvfESIdmOLN8lBW6R/07NlTJlvg38Plw0CM+vwYqcTK38cqPC7f9KGXr2MS+FytcuXK8lXPzl27JDzev337Dpm2hbH1ff99c51rKNxLDPj54+DYEVa4FAcyqpk9wu5Yq1atvZDPrhaTX7tOXTpx4qSEtT/nCxDWRbpV8lHqZaNGPlf3UGPEAg+4hqXKms/OISi56LBhQAoje1FRUbJ+YBm7a8fZ5cTw7RX2KNZyGz9v3jxZqDmHffvo6GgZAMJwsAJGM2DAAIkXg0Lr1q+X60hXYsF5XMXxOsMKl+JQMgD4wQ0bNhKFgHQl36zhC6SmzaPYNTJ/nMH+nK/AM56COOTIIgbAxqCfmqEaxlAuJmReeCGKKlasSAUKFJCvjbSHj9KdiX39UmVKy2IRtP/o4UcvWUKHDh1yrfTxxI4dO6hcOTPYE9WqhYxJAIlx7xT8/Fxw7BV8/2kTLOWBjGpmsS9OjRpmsAOkQ1ADmHH7IHqVm4Rz1l/ssj+XVEB8UiPAICzDwjna5qNHj8om09i2ZerUqdSrVy8ZSi5dqpT04u2fnkHgumHx5hNcQ3R4vQNNnDiJli5bJnnEjODESZNkPiN7juw0yfpMTPMUX6P2BMfxMafBO/gm/uZboqGJVUkI7M+iHa1YyWzgZP9SBsRD3u7SjatL0/GSv8qVwHf6grjygxINvx8Gge8Pu7KbVrduXSpVspQsIMGCUeQDAkPA0C2mfitVqkhNmzWlCk+Y8X00H9jPAHDVQtYxoeBne3Dc3sE321jhEoWkSKw+D6xZs5arwscs8m1Duxb5ffr2o8uXzRw3queEvjO+wHt8eReaCTEILt3zFs6n3n3eo0aNG0mT8ECGB13GoII+BP4mkc7bY2TPPoaQUPCzLTl+7+Cb71rhEgwkTkn3dq6EOsFbWIy6FSpcxCLftPdCfqoALj0h9NmoMeJX4zkZZo3jHUkJTaemGSTpEdc8gWuYpr146SL9tns3ffPdt/LJFjZ0qMt9g1LcXKAP8aPHvL2+IzEwLDuAIx9uhUsw7AqwK0HP76YUzaCeA5gbx24dYdzJQ+/ePsCjEyvY4PGsbdLDW/z3Cvb0avo9zzVNMEq9xxfkGu5hEAvuLDq2WJWLSR54FQDua1yQxMCw7AC+b5aiJAKaWW8kaMa9ZUKf0yoOgAKaMPEYJTMTOrGnVrHAMkPGzPTFzC+5RN2Q5xKrpITAiRxcs+fZ/lvFGxBGdaG6cQrrKyyavYMjN4vB44GYmUDG3Bk6e+6sTLOKr8vWrde9QTOoo1kABj8wEBLIbhNKOshW8u1GwEnn3nNFLjnx2ig8xaD5wxH5VmOwQ+/haD9PDAzLDuDI91jh4oQ9UTI2fjvmZ9Y//PgDvfX2W9SoUWOKahFFI0aMEFfGniEVQOJhAW5zXJgTx7Zs8JvhLuEvbcUi36oJjL8fwK7RFDEeP7zDotk7mAif5vJBmCeJIF8NYcYXM2TjBI4yhsD/xeYLCIdSrmInHr3iDz8cSAUKRMozWGuHxQ32JVwxDQDVvxlzb9++g5/8u4B15AwrTJywk69EKvnRy6IpV26zny5mwUAQSi1+oxS3adNGZs8QFjUFBMDvFSuWU7PmzfkZU5VjmVQssiFS4nEPBoHl1qbjhz1ykSY/vIN15AwrTJxQ0pV4CK6hWteJD1TFst6dSyy+iA0Otb5+jYiQvWgA+OQAJk1GfjrSvc49gKt6fg5EO7X1stwa5Ftf2sI37tixo8Tnh3eAY0dYYXwCiLfXAFi9grFr+VLWWghphEmUDyjNZgdYH/cC9wE0DuxW1eyF5rKnLZKAXTXwnJJuJ1/jFPLliHjh8gVLx3DixIkSrx+xwRwl3Vy+nXjg+PFj4pYhGt2WxF494ytaHdrEnntYn4aPIQsVKWwmQ9ho8I27qS3MXL2KGoGKMQAWNirUKCj1tWvXdvnGfsQG85R0c/kgXat7YOnSZa5Omr2kmiqaz5lQCD6JikiTjooULU5Zs5pv1ODDy59asUjF0Yzhh8muGwiD+fMA2147EP1zKSXYK8BqV0DT40dMsF6Sbi4fSkbJB+DDDxw4SIjAoIsSbhcQCsLwxWwwFmGkMnvZmU+freodH0twaUYtoZ88o9YoyLXDIyUeka9g7YshsNihTt26snOGvRnyIzZYN0vAsSOscD4BioYAmNZs1dK92MJe4lVQlet1LbkaVsjXbddQlVtbo+AL1xeiomg5l2r85Y7RY8fI5gkvvvwi9enbh+Zzs4G/mqnEq9voR2ywfu46l1/FBPMNULYqetOmX6hqVfM38pVMO/FCrp1onKOUW1W83kMtoNuUoSr/eOhQ2b/GDpgbllcB4mlggInTocSrQfoRE6yXAUK0N/DNeM3lQ8mq6OjopTIbxdEwiW7C7WTHIJ/bcvPbXSPIYkx+Hq5gc/b1sThCV7uAVBEmWt+JI5ZZyd/Gtfoees+P2GDd3HUu/zUrnE+wl7IFCxZSQWtET4dcPQ1ASLcMQEbl+Ny4a9wJtD52xNcy+KoFy5wAe4n2POLNqAFAvgwv8zW57jcAr2C9NBeivYFvxmsu367oWbNmWd+Zwb83pKsBqBHYS78hn3v4tiVO2JIcU5m6mBFx2wn1JJbLuVXlW0fLAOxh/HBDSHYCK22MFc4nQMmqaOxC8RC2FnF95eom3k4+jiJc2nXHLHzQiNWqWO6s1bd9guhuYKqlBsAiS02PL8/djzAsO4Dvx3suXxWNT6ixdFlcNyHXXeWDfDvx+MbNzMKlkhUry5Ytc033gnydw/aTmbQwLDuAlfx/VjifocRgtY1U+wFBLvKdSn0QNh/mNv6VV16JMcWLI0jXNh3wV+NJB4tm72Alx2suH8QoSdh5qlq1ajL4AqKVdIgaAQT3MO+eL38B+RjRHo8KrvlLftLDotk7WMnuz0buApChRClAFjYo4GhchCv5uukRjkp+/frPu9w4PIuqXokH/KQnPQzLDrDC+AQlBwLSQN706dOFfFTpWsq1FtDfMi7PHb2hn5h1onje186dH4mDYdkBVpg4oYTrESUXwPd02KgAUaHNNwsu3aUfkzTY+KhUqbKy+xSAOPzEJw8Myw6wwsQJT/K1ysbfoRk2fKSQb3a30o6fqfZllW2GjLLGHsAzfiQPmKubhmUHWOHiBRiAvXd+8NAh1weVaNsxHatr68PDI6hV65dcmwr5S3zygXV9Xkh2ghUu3gDxKgD2hcW3abKdCUeLhRo5smeX7+sPHTLf0Nv/sKIf9x6s6z2G5QSAH+7E0ptlMMscRMZyisXsCOgBbDM+e/Zs6vL229Snz3uyaQGu+ZEyYJ4WW1QmL06ePFmPX44/ONP3xo0bn9y8eXMJ1xIHWM7wde8fqfuRpGA9T7fo+HuBEx6lxsPHT1hWshxggfH4F+n7ANZTf0ud9xc44y+zdIMCWEawLjbw8TDLeZb7wng4n29a6vAjPmDFtWVR4xnHspPlOMslFjPI8RcHp7OJlR0/khOs+A4sPVgGsExhSXbjsZLix98NbCDx8rS8wYrKj/sJbCDwtLpZP70gVar/B0ip9afOmdc0AAAAAElFTkSuQmCC;" parent="WIyWlLk6GJQsqaUBKTNV-1" vertex="1">
          <mxGeometry x="33.120000000000005" y="160" width="77.76" height="60" as="geometry" />
        </mxCell>
        <mxCell id="G4_ZPfTSfTKjTcAOsqXa-6" value="" style="edgeStyle=orthogonalEdgeStyle;rounded=0;orthogonalLoop=1;jettySize=auto;html=1;" parent="WIyWlLk6GJQsqaUBKTNV-1" source="G4_ZPfTSfTKjTcAOsqXa-1" target="G4_ZPfTSfTKjTcAOsqXa-5" edge="1">
          <mxGeometry relative="1" as="geometry" />
        </mxCell>
        <mxCell id="G4_ZPfTSfTKjTcAOsqXa-1" value="&lt;span style=&quot;font-size: 18px;&quot;&gt;视频参数选择算法&lt;/span&gt;" style="rounded=1;whiteSpace=wrap;html=1;fontSize=12;glass=0;strokeWidth=1;shadow=0;" parent="WIyWlLk6GJQsqaUBKTNV-1" vertex="1">
          <mxGeometry x="350" y="190" width="160" height="80" as="geometry" />
        </mxCell>
        <mxCell id="G4_ZPfTSfTKjTcAOsqXa-15" value="" style="edgeStyle=orthogonalEdgeStyle;rounded=0;orthogonalLoop=1;jettySize=auto;html=1;shape=flexArrow;" parent="WIyWlLk6GJQsqaUBKTNV-1" source="G4_ZPfTSfTKjTcAOsqXa-5" target="G4_ZPfTSfTKjTcAOsqXa-14" edge="1">
          <mxGeometry relative="1" as="geometry" />
        </mxCell>
        <mxCell id="G4_ZPfTSfTKjTcAOsqXa-5" value="&lt;span style=&quot;font-size: 18px;&quot;&gt;视频压缩&amp;amp;编码&lt;/span&gt;&lt;span style=&quot;font-size: 18px;&quot;&gt;&lt;br&gt;&lt;/span&gt;" style="rounded=1;whiteSpace=wrap;html=1;fontSize=12;glass=0;strokeWidth=1;shadow=0;" parent="WIyWlLk6GJQsqaUBKTNV-1" vertex="1">
          <mxGeometry x="590" y="190" width="160" height="80" as="geometry" />
        </mxCell>
        <mxCell id="G4_ZPfTSfTKjTcAOsqXa-11" value="&lt;font style=&quot;font-size: 18px;&quot;&gt;参数配置控制器&lt;/font&gt;" style="text;whiteSpace=wrap;html=1;" parent="WIyWlLk6GJQsqaUBKTNV-1" vertex="1">
          <mxGeometry x="360" y="150" width="150" height="40" as="geometry" />
        </mxCell>
        <mxCell id="G4_ZPfTSfTKjTcAOsqXa-20" value="" style="edgeStyle=orthogonalEdgeStyle;rounded=0;orthogonalLoop=1;jettySize=auto;html=1;" parent="WIyWlLk6GJQsqaUBKTNV-1" source="G4_ZPfTSfTKjTcAOsqXa-14" target="G4_ZPfTSfTKjTcAOsqXa-19" edge="1">
          <mxGeometry relative="1" as="geometry" />
        </mxCell>
        <mxCell id="G4_ZPfTSfTKjTcAOsqXa-14" value="&lt;span style=&quot;font-size: 18px;&quot;&gt;视频解码&amp;amp;分帧&lt;/span&gt;" style="rounded=1;whiteSpace=wrap;html=1;fontSize=12;glass=0;strokeWidth=1;shadow=0;" parent="WIyWlLk6GJQsqaUBKTNV-1" vertex="1">
          <mxGeometry x="590" y="460" width="160" height="80" as="geometry" />
        </mxCell>
        <mxCell id="G4_ZPfTSfTKjTcAOsqXa-16" value="&lt;font style=&quot;font-size: 18px;&quot;&gt;实时视频网络传输&lt;br&gt;（TCP/RTP）&lt;/font&gt;" style="text;whiteSpace=wrap;html=1;" parent="WIyWlLk6GJQsqaUBKTNV-1" vertex="1">
          <mxGeometry x="677" y="340" width="150" height="40" as="geometry" />
        </mxCell>
        <mxCell id="G4_ZPfTSfTKjTcAOsqXa-22" value="" style="edgeStyle=orthogonalEdgeStyle;rounded=0;orthogonalLoop=1;jettySize=auto;html=1;" parent="WIyWlLk6GJQsqaUBKTNV-1" source="G4_ZPfTSfTKjTcAOsqXa-19" target="G4_ZPfTSfTKjTcAOsqXa-21" edge="1">
          <mxGeometry relative="1" as="geometry" />
        </mxCell>
        <mxCell id="G4_ZPfTSfTKjTcAOsqXa-19" value="&lt;span style=&quot;font-size: 18px;&quot;&gt;视频推理、分析&lt;/span&gt;" style="rounded=1;whiteSpace=wrap;html=1;fontSize=12;glass=0;strokeWidth=1;shadow=0;" parent="WIyWlLk6GJQsqaUBKTNV-1" vertex="1">
          <mxGeometry x="350" y="460" width="160" height="80" as="geometry" />
        </mxCell>
        <mxCell id="G4_ZPfTSfTKjTcAOsqXa-30" value="" style="edgeStyle=orthogonalEdgeStyle;rounded=0;orthogonalLoop=1;jettySize=auto;html=1;shape=flexArrow;" parent="WIyWlLk6GJQsqaUBKTNV-1" source="G4_ZPfTSfTKjTcAOsqXa-21" edge="1">
          <mxGeometry relative="1" as="geometry">
            <mxPoint x="190" y="310" as="targetPoint" />
          </mxGeometry>
        </mxCell>
        <mxCell id="G4_ZPfTSfTKjTcAOsqXa-21" value="&lt;span style=&quot;font-size: 18px;&quot;&gt;视频播放/保存&lt;/span&gt;" style="rounded=1;whiteSpace=wrap;html=1;fontSize=12;glass=0;strokeWidth=1;shadow=0;" parent="WIyWlLk6GJQsqaUBKTNV-1" vertex="1">
          <mxGeometry x="110" y="460" width="160" height="80" as="geometry" />
        </mxCell>
        <mxCell id="G4_ZPfTSfTKjTcAOsqXa-24" value="" style="image;aspect=fixed;perimeter=ellipsePerimeter;html=1;align=center;shadow=0;dashed=0;spacingTop=3;image=img/lib/active_directory/windows_server.svg;" parent="WIyWlLk6GJQsqaUBKTNV-1" vertex="1">
          <mxGeometry x="40" y="440" width="57.4" height="70" as="geometry" />
        </mxCell>
        <mxCell id="G4_ZPfTSfTKjTcAOsqXa-25" value="" style="image;html=1;image=img/lib/clip_art/computers/Server_Tower_128x128.png" parent="WIyWlLk6GJQsqaUBKTNV-1" vertex="1">
          <mxGeometry x="40" y="510" width="60" height="70" as="geometry" />
        </mxCell>
        <mxCell id="G4_ZPfTSfTKjTcAOsqXa-28" value="" style="sketch=0;aspect=fixed;pointerEvents=1;shadow=0;dashed=0;html=1;strokeColor=none;labelPosition=center;verticalLabelPosition=bottom;verticalAlign=top;align=center;fillColor=#00188D;shape=mxgraph.mscae.enterprise.android_phone" parent="WIyWlLk6GJQsqaUBKTNV-1" vertex="1">
          <mxGeometry x="50.2" y="230" width="37" height="61.69" as="geometry" />
        </mxCell>
        <mxCell id="G4_ZPfTSfTKjTcAOsqXa-31" value="&lt;font style=&quot;font-size: 18px;&quot;&gt;网络信息反馈&lt;/font&gt;" style="text;whiteSpace=wrap;html=1;" parent="WIyWlLk6GJQsqaUBKTNV-1" vertex="1">
          <mxGeometry x="200" y="350" width="150" height="40" as="geometry" />
        </mxCell>
        <mxCell id="G4_ZPfTSfTKjTcAOsqXa-32" value="&lt;b&gt;&lt;font style=&quot;font-size: 18px;&quot;&gt;Sender：摄像头终端&lt;/font&gt;&lt;/b&gt;" style="text;html=1;align=center;verticalAlign=middle;resizable=0;points=[];autosize=1;strokeColor=none;fillColor=none;" parent="WIyWlLk6GJQsqaUBKTNV-1" vertex="1">
          <mxGeometry x="300" y="100" width="190" height="40" as="geometry" />
        </mxCell>
        <mxCell id="G4_ZPfTSfTKjTcAOsqXa-33" value="&lt;b&gt;&lt;font style=&quot;font-size: 18px;&quot;&gt;Receiver：边缘服务器&lt;/font&gt;&lt;/b&gt;" style="text;html=1;align=center;verticalAlign=middle;resizable=0;points=[];autosize=1;strokeColor=none;fillColor=none;" parent="WIyWlLk6GJQsqaUBKTNV-1" vertex="1">
          <mxGeometry x="300" y="600" width="210" height="40" as="geometry" />
        </mxCell>
        <mxCell id="G4_ZPfTSfTKjTcAOsqXa-34" value="&lt;font style=&quot;font-size: 18px;&quot;&gt;DNN等机器学习模型&lt;/font&gt;" style="text;whiteSpace=wrap;html=1;" parent="WIyWlLk6GJQsqaUBKTNV-1" vertex="1">
          <mxGeometry x="342.5" y="545" width="175" height="40" as="geometry" />
        </mxCell>
        <mxCell id="EHCajwmgejeRqQbwnNQA-3" value="" style="rounded=1;whiteSpace=wrap;html=1;fontSize=12;glass=0;strokeWidth=1;shadow=0;arcSize=18;fillColor=#ffe6cc;strokeColor=#d79b00;fontFamily=simsun;" parent="WIyWlLk6GJQsqaUBKTNV-1" vertex="1">
          <mxGeometry x="140" y="1080" width="230" height="251.25" as="geometry" />
        </mxCell>
        <mxCell id="EHCajwmgejeRqQbwnNQA-4" value="" style="shape=image;verticalLabelPosition=bottom;labelBackgroundColor=default;verticalAlign=top;aspect=fixed;imageAspect=0;image=data:image/png,iVBORw0KGgoAAAANSUhEUgAAAH8AAABiCAYAAAB59QxWAAAAAXNSR0IArs4c6QAAAARnQU1BAACxjwv8YQUAAAAJcEhZcwAAFxEAABcRAcom8z8AACNKSURBVHhe7V0HnBTF8uYid0dQsmSQI0sUFAPJB8JDomSPoOITBAEDQQmCiMIDRIISJCdBkEcwgXLk5F9AyUjOSXKUZP3rq57andvb4fYCdyr78Stmdqanp7u+6lDdPX2pnPDnn3++wPIdy0yWniytWZqw1GYpagXz458IJngcJRD87C8si1jmsUxneZ2lJUvDW7du1eJjpPUaP/6KYILmWlwmO/jdy1hcxsOXXuUjjKcBSw2WvFYy/bgXYIVvECYSiTt37ogwYTEE127fvi2i95MCHM91lmgWNFlzWcaxtGFBMwbjqcTiN567gRW0z9JngsFxeCVaRe/jOo5/BXA6zrOI8fDP2XwcxPISSzOWeiwVWHJbavpngjN43agjYeDnXYRzOy+i15V8NQZc+6eA83KAZQnL1/wTxtOfxWU8fO1RS8V/XUhOEgHOqItgEI/zixcv0vnz560QbgPB0Q8D1sVOlh9YFrCkjKdlpSXB4EQK4SAe55cvX6bevXtTixYtaOasWXT69OlYpOMX1wN8/Y654Ee8wTqFp2U3nk4sMJ6GLL55WlZcCQa/xFWlX79+nWbOnEnp06cnRJ03f156+ZU2NGHiRNr06y904cJFIR4A+XeY/Dv8HJ5V0bj06EfCwfr7w7DsACtcgqGkAdu2baPHH39ciA8MDJIjJF36B6hipUr04YCB9OvmLdIk3Lx5U567jVrDqjm0b4CjnvuRcLB+z4BjR1jh4gWQpiVTiUf13q1bNyE7KCiIUqcOp9DUERQcktplBMHBIRQZWYiiWrSm2XO+ojNnzsqzgBiCRboagsbtR8LA+tsFjh1hhfMJSradKJzDEKZMmUIZM2YUklOHhVFIapbQcD6PYCMIFyMIsNUGoaGhVOGJp+iD/h/RypUr6dq1a9Zb3O/xI3FgHX4Ljh1hhfMJIFlFSyewYeNGqvrMM0JqCJOcmomHAYB0u6ghhISGUWBQiMsQsmTJQs2aNZH+wuHDh1zxKtTA1Cj03I84MRkcewUrsJYVyCeo8rXUA2fPnaP2HToymcEUEBBkEQ3yDdlKuJKvv/UcxhIQEMhNRSBlzpyZypd/jN7t0YPWr/+JLl+5Iu8AlHQI3u03AJ/Q16I6Nlh5Da1APkEJgPJV8dOmzaC8efOZqpzb+FCL1LhEDQKCJsE0C8EcTwClTZuOSpcpS23bvUZTpk6j3/bskQ6iQtPhJ//uYP10NEx7Ad/sYoXzCVryVOno3T/1dEUhPjgk1FWilVRPwr0JwqEZ0GNwcKhlBKaDmDVrNqrfoCFNmjKVtmzdSmfPnnXVOkgHRNPkee557X6DkOwEVkgfK5xPUEXq+RtvvEFp0qSR9lsJV/FGtJNoeBzthoCmhJMpki59eqpQoQJ17dKF1qxeTRfOX3CNKCItmjZ7k2C/hvP7DUKyE1ghmEaNF1SJM2bM4FKZlVIFBMQiMb4S13N2dxGSL38+GUEcP3ECHT1+DGOFkiYAZN9ism/fcY8VqBHcbwYAjh3ByphnhYsTdgVC6tSpw521EKnuUUq1xIIsewnW33ER7CQSF3cgzfPhFMTv5KQbCUhFkYUL0nt9+9DKNavp8jV3BxFAOtUA/OR7gJWxwwoXJ6A4VSIUOnv2bBnNgwGgk2avrpVoz9/exOkerkPCwtNIHMEhiAfCrmQ4/w4NoQD2EDgb7C0EUIbMGanWc7VozOdjae/+/TJy6IJlsPcbDMsOYIUcsML5BCgQAvLXrl1L48aNo379PqBcufMKCZ5tv51ET3LjI644RNiN1KO4k8bA0EnEyGKGDBmoUpUq0h/5ftEiunTpUgzicWaEjfnPf3ZtYFh2gBUmTkBB9qoT5E+ePIVy5sxJ4ydMorn/m0916taXGgDRoo0GWSi1hniId2LjkrsaDruWEISBAYgRBGAUMZDCwlJTkSJFqH2H9jRr9pe0ddtWunLliotszgndxsQSzMDKn97DUc//zjAsO8AKEyfsylE5duwoFS1aTMiu/mxN+va7RfTZqLF8rbhcg4AU+P4Y5pV2G8O9IMxGXCxCEyDmPUZgeKiBAgJNk4B+Qa7cuaha9Wo0ZOhQ2rFzJ51hd1HHDW7/yR3DW+5hau0j/BPA+XeGFcYnqHLUCFCdtm/f3kX0Q9lzUtdu3WnBwq+pY6c3KDw8Qq6jOgYpQUwKSibIwhHXPElMrCj5waH8rjD0C2AIbncxmPsn5R8rT524SZi/cAGdPX9OyNb84VwFv//u4Dw7wwrjE+zkA5i7Hz9+vFFsINr7IK7mw6hS5co08rNPpeNVuUplt+JDQ5kgJp2bAHTaQvlcmoMkNAKQr4ZlP8c9nGuzBAlhL6Ve/edp6tTptH37dsmTQvP6dwbnIenm8u3kq2I2/fIL5X/4YVFmKLexIalD5TxfvnzUsXMn+nzCeGrXvh3lzptbrgcGB1FouOmtQ0I5fGr03j1ITCpRI9Bz9EFwDkPQGiGQm4eHOQ+tW7empUuX0tWrVyVvCs23/fh3AKcz6ebykWkVrSrPnDlD7/R4V6pTRBfIrlcIG0FAYAClSZuWnvnXM/TJ8GE0aMhgqvBEBSEa4eCmwVjEbUtEZ9AXUQOA2GsFlaBgY7DwFLJle4iqV69OAwcOpM1btsgIogL5thv+Xx2c3s3g2BFWOJ9gJx8K0HYRJWXqtGlUskxpUSJ87qAQLlV8DA4OpqLFitLrnTrSiE9HUps2L1PmLJljGICp+r0TF1+xE+x53X4N59I3sLwSXIMRBAaGyAqkBx54gMpx36B7j3do4dcL6fCRI5YW3FBdeJ7/VcDpWSgkO8EK5xM0gxAl31SD5v6xE8eo/0cfUp68xucH+agJcJ42XVpq2LiR9AW6v/sOlSxZkhUfbJoB1+idm6x7LXifGom9NsB5MEsquIvsJUSkiaCChQtRVMsWNGPWF7Rr1y66eOGCq/Qr4aoTPep5SoLfP0pI9ga+Ga+5fG9ABiWTVkZv3rpJP//8M73GvnXmLFlMTcBNABSJ88iCkdS33/v02ZhR9GzNGhTOykXbC6XbS6yS4XnuKXe7Fx/ReFAT6LQy0muXDBkzULVq1alv374ywHWBjUDXIUJQGOzrEEUvKQh+f29Ot3fwzWZWuEQDGdXSgOMVbgr+N38e1a5bh9Jy28+vcwlm5xo3aULjuDP4dteulCdPHrmOateTyKQi967CTQ7GH2B8qQICudoPpgwZMlGByAJU9JFiUvIxmIXZSzVidBDh5s6dO5dOnDgh+QbUCNQAUtII+L3/4bR6B9+M11y+E5A5Fc0w8Mcff9CBAwekw1e23KPWHIDbCIo9UpwGDhpEYz8fzx3D6q77diPA4BAGiXB+74wA74AbyDVTZCH6aMBA+nnDRtp3YD/t2btHlpx/v3gRjRn3OfXs3YuaNW9GxYoVcy1Px/mwYcOkSUCeFaoPHFMCnDZncKI+tMIlCvZM4ijVH4tm+tLlS7R23Vp6q8tbMhUL10pLEEbhmjePohlfzKRevd+j3HnMiqCgYDNH4J0styRFzYBxB7wTgz+rVq+SNG/fsZNGj/mc3u/Xn/47eAiNGjuGZsycJXMFq1avphUrV9K3331LQ4YMoRo1alCOHDkoskAk1atXj0aPHk2HDx92JB3Xne4lJcCxIzgB8Z7L94RmxFPUCCD4DcAtxALNxo0by+SLvSbIkTMH1wL/pTlcjTZ4vgGFhZmSCK8hhN1BuI8gyRt5iRWp6rnjOXHyJEnn7K9mU5kyZaV5ChNPJIzCIyK4zc9EBQsVoqrsvqJPM37ieFqxaiVt3rqZtu3YTtFLo+lzrh169OhBXbt1pUGDB9G3i76nI4eP0I2bN2LoRguLyr0AOHYEv3SRFS7BcEo8rtkNQDMLnDx5kt555x1Kly6djApi0EdrgqcqPk1Tp0+T/kCJUiVNLcHX4RmEMBEhaJ+TyC1UQfyVqlSmY8eO0Z59e6lUmVJyDRNE6PyZiaLYHUAJw95MEXZlW7ZuRe9/0I8mTJpIy5Yvp4OHD4lhTJ46mb7+5hs6eOQwXb9xw+jitttTsutFobrzptf4gNPnDI78NyvcPYE9ExDNMAADKFSwkCgwJNT4+oHBZsQtR85c1LFTRzaACdTn/b7sIRSUsQPcCwp2++VJUuXz84i37Wvt6Nr16zL79+CDD4qvb7wPtzsIT8BcM4NTOpppl9Th4ZS/QAFq1KQxjRg5gpZwbbDx103yQQvyL2BOVSeeAv14FpaEgtPjDI7c3U1NBiBDcIU0UzVr1hRSzSINQ6K4WkEhUu2XKVuOho8YKR3CFi1bUe7cxiuAePMMVHDd854S6HldevgcXxeupqH00WPGyLvN6iTj+ml8CGsE5+74kBaEw0wizlFLYHArW7ZsVOHJJ2SMAIaw6ZdNsvhUC4BCSQdwTAriAXDsCCtMskAzqBnDEVU/koFBFSVIlQ3FBgSGiItVr35D+mTYCBr56ShZxZuTawbM12N8wF0a3QTZj3ai9R2e4ZEGjD0gXR8NHCDDvDrsrOHMs8ZYMDUN91DTHR6eRp5BPCZdoWIIGOSSa9ykZcmalao+U5X7At3oyy+/pK1bt8r3imgClGhP/cAY9V5CwO92hhXmnkMzY88caoBJkyaJcjDV61awmxQQi84YSlPx4o9Qh9c7igEMGvwx1a3XgHLlym3I4zYZYXCui0dCQjg+kCWEIU4b+XIPhhYmz6GzN5Y7akgbhqGRJvd8gx4RL57HhBTHwcaBD00KFSpMo0aPoZ69elONmv+WD1Lx/N0EzUqZMmXovffeo/Xr19Pvp3+P8U0CSId+IKqvhIDf5QwrzD2HpyVDcL6I3SYoF+TZyXeRhFLGxEkp4uQGsvv3+OMVqN8H/dk1nEVDPv6EjeB5WULm8hwCzNoBmS5mkkzptWqBcI4Xv8UYTC2DKjrLQ9lo7fp1dPnKZapctYrEY0+Lnfxgq62HF4LS/vbbb2ku6dq1q7R8xXIZ13i1XVuqwiU9K1f9ki4HeTDDg/KZW9euXdiN/J69ArcRAKqvhIDjd4YVJlmgBmDPzLbt26lEiZKihNjKNoJragT6kSeUXrpsWerdpw99t2gxzZu/gNq91p6KFCnGhLrdRwjWEMjsoQjHw8cQviYTT3w/Ik0a6ezBGJcxcRhuhkF4pkPSwoaDEo8JKVTluXLlog0bzF5WyBuAeDDQg51J4D1ggGjqjGnUslVLKl2mtCx1x5oHexpV8O7n6tQmzI/8sORHOn/hgsSpccfHCDjsVY7TGVa4ZIGddD0eO36cmjRtKhlXku1HUTgfRVBi2SUMCeMOFeYK+Bm4gXny5aUXX36J5sz9in7Z/KsMKcNDQAnGegGE8yYwIAwrt+USivGH07+fFt8d97D6JybxSAunSYQ7d0w+OnT169VzjehpFQ0gf9dv/EEnT52ivfv30a7dv9HW7dvE9Zs2Y7pMgWOsIA93YOHuSn9BB724n4AOZ1aujZ6pWpWWLFkicSJujd8XcBpOcXzOsMIlC7yRj55vl27dDRnc9irZdtI9CUiNKWAsAuFzeymHwqDQAf8dSIt+WEzrflpPK1evkjGDHj170IsvvUh16tWlZ599lmrVrkXt2r9GX3/7DZN3Q8bm+33YX6pzdNKkQ+d6r1uk5DP58O3xQemnn34q+UB+QAxK/b4D+6gv+/sVK1eSIW0IxhBefa0tjRozmrbv3AFPjw4dPizp/IDfi9JeqGgRSps+nSs/kNy5c8un6wDijif5azkOZ1jhkgWqID0Hbty4SUM/GSZtPkQUHINwm6DDxlW/LNe22mxTElEVs2dgTR1Dwrmtx1w8PuSY/dUcWrR4kRjCmnVrac3aNbRl6xY6dfoUHeVqecHXC9mDqM99BuOzY8zB6xSzdBi5n4Aqn8M99fTT9NtvZpgE+UHPHVvPYBII93Vcwi4RadPI4hbUUva9CFBLHDh0kJavXCEDRUXYEPB8y5YtXTrDUfXmCzhs0s3lJxZIuCbeHM35xImTKW06M0FietOeJd67IIzpC+jgi+m962+MHKaJiKDs2bNLW1u7Xh3ZG6jzm2/Sm9xJ+0/bV6VpwDoDvBv9CY3P2/slXWxsmIvAMz179ZL0A6g5MKSrq5REuBpP90B6yl/gYdfiFRU0N+PZUFCaPbF9x3aqxLVGpoyZZH0kAH0loOQP53d5B9+sbYVLNiATKpqRH5dEU9FiZvm3Ubp38kX5tuv62/N6CH5bBmAGXLRG8D48i5E8XU4ucVnk2+M0gmuG3OLFi9M333wj6cfOY4MHD3bN8EEKFIyUpgaTWQcPHqQl0dHSqcz20EOuMMU4jh+t9ly+HZACQdJMoUNYvlw52rhxo1yDvhJA/l3n8qOscMkGO/Fq9ceOHadatWqLQkKlo+W95NnFGzn6G3sDQHShpt4ztQHW8gfLIAxKuN7X0o7nYDxOpR8zjUhnG65BdA5//vz57Oubqh5Sj5uQLdu20k3uAB4/cZwOMPnYYALfCQxjF9C1yokFBmHffOI4x/lSm5flHj40wQcmgOoMgnMf8SLH4x0cSXcrULJDMwKgt4y2DT139HqNARgiVOkg4q7VsXUfBOMcRy3pmAtwG4IJqwNBEKe49NweBvFlz5mDvpwzW9KOpeudOnUyvXW+V4V751j0efjoEerUuTMVKlyYHo4swB3M5yh62VK6yu08RvjCIsx8AiaxNmx0b3u8aPFiKlykMEsRcfUAJd5+9AUcvzP4/kATLPmhGVG8ye1wBLfPSFZQkBmksRMCMpxESjRm3rD0KkBnAENZ8UXp4QIFXR05hNM4IXjW/h676Dtd9/mIc8RTu04dcd2AnTt30pNPPinXscpnzldf0eWrV+jl/7RhIzbvVan2bHXat38/rVqzmqt808yhAwjXD/iDO32d33xDrjdt1kyaC0Cr+/gQD3A8zuCIZlrhUgyaGSx+iIyMlJ28oERtd6F4O9EQb73oMA6bIWMWbotLUIMGDWj69C/oyNHjtHvPPnq9Y2d2y7JKOEzNKqkmvphGpuf6235N9xT8aMAAGcAB0O7nz59frpd99FHau3cvLfrxB9d3DHBFMaCEcwwqzZnzlfTqn3jKGAwEH7YAu/fspnLly8m1j4cNdX07oMTH1wA4HmdwJImey08sNCOnTp2iNWvW0KpVq6hb167cm37AVVKVLJRsnFerXoOaNG1ONf/9HD3x5NPsclWizp3f4irzRzpy5Khr1lDl/PkL9P33iyiKm5YwdgE562wEgRaxKm7SVezkox+A54oWLSojeiABmDZtmszc4R78euQDJTlL1izSFJj+i9sDmD1nDpf+fWIoeg3b1wFYSJIpc2bKmy8vbdhkOnp2wiFJSf49nctPKKBQmSXjnroSAEGvPU3a9DT3f/O4SjzEJWUvbd22XUYJlQwAykHvGXLzNhsC/7t167asux8y9GOqWKmijM6xCqySaaveLdFrKsZrSCXtO1bsKgGLuY3GFnK4F1mooLT1v275lXLmwawjx8/v0TmH0qVL0759+2j58uUyU4lrqbl/s2LFCrpx6ybV+HdNufZO9+507tw5iV+rfLxPxVdwXM7giNxbYqcw7BnDqBmUreRrKUQHLlOmrPTTz+6SZweuiaJYYYjr1p3b0uO+zeca+uq1q7SRS1XX7t2kU2WWlAdKLWOagZiGoL8xWQTjW7hwoatmAfbs2cO9d/cag8nTTCn+mI0sTUQa13Ws9MUkFtChQwfXeMBTTz1Fv585Q0uXL+NSn4nTEyjhdKgY5Ou74guO3xlWmBQHMqdk4nzIkKGccLPLhxKPc4wA4itgrKoF8MTd1IK4/oQx4Mj/+MwVHhMmC5jIho0aShVt5uCxvYwxAn0n+gTwDKCuUqXLSrWO+NRNxShdvfr1xFNBGPj3v27ZLGFWrVpNn332mWxesXv3bgk/ZuxYGRZGWMiECRPkeo9ePaWZKF2mjKx2ljSziDHzMSHg+J1hhUlxaEYBzGn37/+hKMYb+XnyPkybt26TsLHLvjMQ/Z07Rpl2Qztx8gQNHz6cHq9QQYaEMWGEjhnmDjBkjAke7P+DTuZI2zi+lkjIbHb7sNBTJ2ZKli5Fk6dOoVO/n5bwZ86dpXXr1lGXrl1c/QMI3LxTp0/T6TO/U+lHy8i1Ltzf0bgTQzzA8TnDCpPiUCUC6OH27NlLFOGN/MJFitIuHU+X/30EB/4T5GMkDQYABVtGgN+/seuGZVx58+cTojFPAF88tbWwFEO0+w+a3WuUGCXnxo0b0ozAtQsINh4Bxv+Lsjv3r+rVpCMIX19XIyP+R0qUkHF8PI8Fn7ieJVtW17LxxBLPz97mOJ1hhUtxqDIB9MzfeOOtWOSjOgb55cqX52pxv4SNL/AeFSXvFncIYRAAStxPP/8fNW7axEUUVvig01anfl26ePmShPOG89xB69DpdfHb8ZyTIC7MKi6JNsO6GMF7npse3EOHz/7pV2LAz1/iOJ1hhUtx2DOLFa5t27YTZdjJxygdyMcI2pEjhyVsfKHvgWjJwni67PPPnUNV97Xr19ijmCvfESIdmOLN8lBW6R/07NlTJlvg38Plw0CM+vwYqcTK38cqPC7f9KGXr2MS+FytcuXK8lXPzl27JDzev337Dpm2hbH1ff99c51rKNxLDPj54+DYEVa4FAcyqpk9wu5Yq1atvZDPrhaTX7tOXTpx4qSEtT/nCxDWRbpV8lHqZaNGPlf3UGPEAg+4hqXKms/OISi56LBhQAoje1FRUbJ+YBm7a8fZ5cTw7RX2KNZyGz9v3jxZqDmHffvo6GgZAMJwsAJGM2DAAIkXg0Lr1q+X60hXYsF5XMXxOsMKl+JQMgD4wQ0bNhKFgHQl36zhC6SmzaPYNTJ/nMH+nK/AM56COOTIIgbAxqCfmqEaxlAuJmReeCGKKlasSAUKFJCvjbSHj9KdiX39UmVKy2IRtP/o4UcvWUKHDh1yrfTxxI4dO6hcOTPYE9WqhYxJAIlx7xT8/Fxw7BV8/2kTLOWBjGpmsS9OjRpmsAOkQ1ADmHH7IHqVm4Rz1l/ssj+XVEB8UiPAICzDwjna5qNHj8om09i2ZerUqdSrVy8ZSi5dqpT04u2fnkHgumHx5hNcQ3R4vQNNnDiJli5bJnnEjODESZNkPiN7juw0yfpMTPMUX6P2BMfxMafBO/gm/uZboqGJVUkI7M+iHa1YyWzgZP9SBsRD3u7SjatL0/GSv8qVwHf6grjygxINvx8Gge8Pu7KbVrduXSpVspQsIMGCUeQDAkPA0C2mfitVqkhNmzWlCk+Y8X00H9jPAHDVQtYxoeBne3Dc3sE321jhEoWkSKw+D6xZs5arwscs8m1Duxb5ffr2o8uXzRw3queEvjO+wHt8eReaCTEILt3zFs6n3n3eo0aNG0mT8ECGB13GoII+BP4mkc7bY2TPPoaQUPCzLTl+7+Cb71rhEgwkTkn3dq6EOsFbWIy6FSpcxCLftPdCfqoALj0h9NmoMeJX4zkZZo3jHUkJTaemGSTpEdc8gWuYpr146SL9tns3ffPdt/LJFjZ0qMt9g1LcXKAP8aPHvL2+IzEwLDuAIx9uhUsw7AqwK0HP76YUzaCeA5gbx24dYdzJQ+/ePsCjEyvY4PGsbdLDW/z3Cvb0avo9zzVNMEq9xxfkGu5hEAvuLDq2WJWLSR54FQDua1yQxMCw7AC+b5aiJAKaWW8kaMa9ZUKf0yoOgAKaMPEYJTMTOrGnVrHAMkPGzPTFzC+5RN2Q5xKrpITAiRxcs+fZ/lvFGxBGdaG6cQrrKyyavYMjN4vB44GYmUDG3Bk6e+6sTLOKr8vWrde9QTOoo1kABj8wEBLIbhNKOshW8u1GwEnn3nNFLjnx2ig8xaD5wxH5VmOwQ+/haD9PDAzLDuDI91jh4oQ9UTI2fjvmZ9Y//PgDvfX2W9SoUWOKahFFI0aMEFfGniEVQOJhAW5zXJgTx7Zs8JvhLuEvbcUi36oJjL8fwK7RFDEeP7zDotk7mAif5vJBmCeJIF8NYcYXM2TjBI4yhsD/xeYLCIdSrmInHr3iDz8cSAUKRMozWGuHxQ32JVwxDQDVvxlzb9++g5/8u4B15AwrTJywk69EKvnRy6IpV26zny5mwUAQSi1+oxS3adNGZs8QFjUFBMDvFSuWU7PmzfkZU5VjmVQssiFS4nEPBoHl1qbjhz1ykSY/vIN15AwrTJxQ0pV4CK6hWteJD1TFst6dSyy+iA0Otb5+jYiQvWgA+OQAJk1GfjrSvc49gKt6fg5EO7X1stwa5Ftf2sI37tixo8Tnh3eAY0dYYXwCiLfXAFi9grFr+VLWWghphEmUDyjNZgdYH/cC9wE0DuxW1eyF5rKnLZKAXTXwnJJuJ1/jFPLliHjh8gVLx3DixIkSrx+xwRwl3Vy+nXjg+PFj4pYhGt2WxF494ytaHdrEnntYn4aPIQsVKWwmQ9ho8I27qS3MXL2KGoGKMQAWNirUKCj1tWvXdvnGfsQG85R0c/kgXat7YOnSZa5Omr2kmiqaz5lQCD6JikiTjooULU5Zs5pv1ODDy59asUjF0Yzhh8muGwiD+fMA2147EP1zKSXYK8BqV0DT40dMsF6Sbi4fSkbJB+DDDxw4SIjAoIsSbhcQCsLwxWwwFmGkMnvZmU+freodH0twaUYtoZ88o9YoyLXDIyUeka9g7YshsNihTt26snOGvRnyIzZYN0vAsSOscD4BioYAmNZs1dK92MJe4lVQlet1LbkaVsjXbddQlVtbo+AL1xeiomg5l2r85Y7RY8fI5gkvvvwi9enbh+Zzs4G/mqnEq9voR2ywfu46l1/FBPMNULYqetOmX6hqVfM38pVMO/FCrp1onKOUW1W83kMtoNuUoSr/eOhQ2b/GDpgbllcB4mlggInTocSrQfoRE6yXAUK0N/DNeM3lQ8mq6OjopTIbxdEwiW7C7WTHIJ/bcvPbXSPIYkx+Hq5gc/b1sThCV7uAVBEmWt+JI5ZZyd/Gtfoees+P2GDd3HUu/zUrnE+wl7IFCxZSQWtET4dcPQ1ASLcMQEbl+Ny4a9wJtD52xNcy+KoFy5wAe4n2POLNqAFAvgwv8zW57jcAr2C9NBeivYFvxmsu367oWbNmWd+Zwb83pKsBqBHYS78hn3v4tiVO2JIcU5m6mBFx2wn1JJbLuVXlW0fLAOxh/HBDSHYCK22MFc4nQMmqaOxC8RC2FnF95eom3k4+jiJc2nXHLHzQiNWqWO6s1bd9guhuYKqlBsAiS02PL8/djzAsO4Dvx3suXxWNT6ixdFlcNyHXXeWDfDvx+MbNzMKlkhUry5Ytc033gnydw/aTmbQwLDuAlfx/VjifocRgtY1U+wFBLvKdSn0QNh/mNv6VV16JMcWLI0jXNh3wV+NJB4tm72Alx2suH8QoSdh5qlq1ajL4AqKVdIgaAQT3MO+eL38B+RjRHo8KrvlLftLDotk7WMnuz0buApChRClAFjYo4GhchCv5uukRjkp+/frPu9w4PIuqXokH/KQnPQzLDrDC+AQlBwLSQN706dOFfFTpWsq1FtDfMi7PHb2hn5h1onje186dH4mDYdkBVpg4oYTrESUXwPd02KgAUaHNNwsu3aUfkzTY+KhUqbKy+xSAOPzEJw8Myw6wwsQJT/K1ysbfoRk2fKSQb3a30o6fqfZllW2GjLLGHsAzfiQPmKubhmUHWOHiBRiAvXd+8NAh1weVaNsxHatr68PDI6hV65dcmwr5S3zygXV9Xkh2ghUu3gDxKgD2hcW3abKdCUeLhRo5smeX7+sPHTLf0Nv/sKIf9x6s6z2G5QSAH+7E0ptlMMscRMZyisXsCOgBbDM+e/Zs6vL229Snz3uyaQGu+ZEyYJ4WW1QmL06ePFmPX44/ONP3xo0bn9y8eXMJ1xIHWM7wde8fqfuRpGA9T7fo+HuBEx6lxsPHT1hWshxggfH4F+n7ANZTf0ud9xc44y+zdIMCWEawLjbw8TDLeZb7wng4n29a6vAjPmDFtWVR4xnHspPlOMslFjPI8RcHp7OJlR0/khOs+A4sPVgGsExhSXbjsZLix98NbCDx8rS8wYrKj/sJbCDwtLpZP70gVar/B0ip9afOmdc0AAAAAElFTkSuQmCC;fontFamily=simsun;" parent="WIyWlLk6GJQsqaUBKTNV-1" vertex="1">
          <mxGeometry x="147.12" y="1120" width="77.76" height="60" as="geometry" />
        </mxCell>
        <mxCell id="EHCajwmgejeRqQbwnNQA-9" value="&lt;font style=&quot;font-size: 18px;&quot;&gt;&lt;b&gt;实时视频流传输&lt;/b&gt;&lt;/font&gt;" style="text;whiteSpace=wrap;html=1;fontFamily=simsun;" parent="WIyWlLk6GJQsqaUBKTNV-1" vertex="1">
          <mxGeometry x="380" y="1120" width="150" height="40" as="geometry" />
        </mxCell>
        <mxCell id="EHCajwmgejeRqQbwnNQA-16" value="" style="image;aspect=fixed;perimeter=ellipsePerimeter;html=1;align=center;shadow=0;dashed=0;spacingTop=3;image=img/lib/active_directory/windows_server.svg;fontFamily=simsun;" parent="WIyWlLk6GJQsqaUBKTNV-1" vertex="1">
          <mxGeometry x="690" y="1110" width="57.4" height="70" as="geometry" />
        </mxCell>
        <mxCell id="EHCajwmgejeRqQbwnNQA-17" value="" style="image;html=1;image=img/lib/clip_art/computers/Server_Tower_128x128.png;fontFamily=simsun;" parent="WIyWlLk6GJQsqaUBKTNV-1" vertex="1">
          <mxGeometry x="690" y="1200" width="60" height="70" as="geometry" />
        </mxCell>
        <mxCell id="EHCajwmgejeRqQbwnNQA-18" value="" style="sketch=0;aspect=fixed;pointerEvents=1;shadow=0;dashed=0;html=1;strokeColor=none;labelPosition=center;verticalLabelPosition=bottom;verticalAlign=top;align=center;fillColor=#00188D;shape=mxgraph.mscae.enterprise.android_phone;fontFamily=simsun;" parent="WIyWlLk6GJQsqaUBKTNV-1" vertex="1">
          <mxGeometry x="173" y="1190.0000000000002" width="37" height="61.69" as="geometry" />
        </mxCell>
        <mxCell id="EHCajwmgejeRqQbwnNQA-19" value="&lt;font style=&quot;font-size: 18px;&quot;&gt;系统信息反馈&lt;/font&gt;" style="text;whiteSpace=wrap;html=1;fontFamily=simsun;" parent="WIyWlLk6GJQsqaUBKTNV-1" vertex="1">
          <mxGeometry x="400" y="1270" width="150" height="40" as="geometry" />
        </mxCell>
        <mxCell id="EHCajwmgejeRqQbwnNQA-20" value="&lt;span style=&quot;font-size: 18px;&quot;&gt;&lt;b&gt;移动客户端&lt;/b&gt;&lt;/span&gt;" style="text;html=1;align=center;verticalAlign=middle;resizable=0;points=[];autosize=1;strokeColor=none;fillColor=none;fontFamily=simsun;" parent="WIyWlLk6GJQsqaUBKTNV-1" vertex="1">
          <mxGeometry x="210" y="1283" width="110" height="34" as="geometry" />
        </mxCell>
        <mxCell id="EHCajwmgejeRqQbwnNQA-21" value="&lt;b&gt;&lt;font style=&quot;font-size: 18px;&quot;&gt;边缘服务器端&lt;/font&gt;&lt;/b&gt;" style="text;html=1;align=center;verticalAlign=middle;resizable=0;points=[];autosize=1;strokeColor=none;fillColor=none;fontFamily=simsun;" parent="WIyWlLk6GJQsqaUBKTNV-1" vertex="1">
          <mxGeometry x="581" y="1283" width="128" height="34" as="geometry" />
        </mxCell>
        <mxCell id="EHCajwmgejeRqQbwnNQA-24" value="&lt;span style=&quot;font-size: 18px;&quot;&gt;&lt;b&gt;视频参数配置&lt;br&gt;控制器&lt;/b&gt;&lt;/span&gt;" style="rounded=1;whiteSpace=wrap;html=1;fontSize=12;glass=0;strokeWidth=1;shadow=0;fillColor=#fff2cc;strokeColor=#d6b656;fontFamily=simsun;" parent="WIyWlLk6GJQsqaUBKTNV-1" vertex="1">
          <mxGeometry x="230" y="1120" width="130" height="80" as="geometry" />
        </mxCell>
        <mxCell id="EHCajwmgejeRqQbwnNQA-25" value="" style="shape=flexArrow;endArrow=classic;html=1;rounded=0;fillColor=#e1d5e7;strokeColor=#9673a6;exitX=0.997;exitY=0.333;exitDx=0;exitDy=0;exitPerimeter=0;entryX=0.008;entryY=0.33;entryDx=0;entryDy=0;entryPerimeter=0;fontFamily=simsun;" parent="WIyWlLk6GJQsqaUBKTNV-1" source="EHCajwmgejeRqQbwnNQA-3" target="EHCajwmgejeRqQbwnNQA-26" edge="1">
          <mxGeometry width="50" height="50" relative="1" as="geometry">
            <mxPoint x="390" y="1160" as="sourcePoint" />
            <mxPoint x="520" y="1162" as="targetPoint" />
          </mxGeometry>
        </mxCell>
        <mxCell id="EHCajwmgejeRqQbwnNQA-28" value="&lt;span style=&quot;font-size: 18px;&quot;&gt;&lt;b&gt;实时视频流&lt;br&gt;分析模型&lt;/b&gt;&lt;/span&gt;" style="rounded=1;whiteSpace=wrap;html=1;fontSize=12;glass=0;strokeWidth=1;shadow=0;fillColor=#d5e8d4;strokeColor=#82b366;fontFamily=simsun;" parent="WIyWlLk6GJQsqaUBKTNV-1" vertex="1">
          <mxGeometry x="550" y="1130" width="120" height="80" as="geometry" />
        </mxCell>
        <mxCell id="EHCajwmgejeRqQbwnNQA-29" value="" style="shape=flexArrow;endArrow=classic;html=1;rounded=0;exitX=0;exitY=0.75;exitDx=0;exitDy=0;fillColor=#CCFFFF;strokeColor=#b85450;fillStyle=auto;entryX=1;entryY=0.75;entryDx=0;entryDy=0;fontFamily=simsun;" parent="WIyWlLk6GJQsqaUBKTNV-1" source="EHCajwmgejeRqQbwnNQA-26" target="EHCajwmgejeRqQbwnNQA-3" edge="1">
          <mxGeometry width="50" height="50" relative="1" as="geometry">
            <mxPoint x="409" y="1260" as="sourcePoint" />
            <mxPoint x="390" y="1268" as="targetPoint" />
          </mxGeometry>
        </mxCell>
      </root>
    </mxGraphModel>
  </diagram>
</mxfile>
